<?xml version="1.0" encoding="utf-8"?>
<!-- Generator: Adobe Illustrator 27.4.1, SVG Export Plug-In . SVG Version: 6.00 Build 0)  -->
<svg version="1.1" id="cross-circle" xmlns="http://www.w3.org/2000/svg" xmlns:xlink="http://www.w3.org/1999/xlink" x="0px"
	 y="0px" viewBox="0 0 800 800" style="enable-background:new 0 0 800 800;" xml:space="preserve">
<style type="text/css">
	.st0{fill:#49A0AE;}
</style>
<path class="st0" d="M400,66.7C215.9,66.7,66.7,215.9,66.7,400S215.9,733.3,400,733.3S733.3,584.1,733.3,400S584.1,66.7,400,66.7z
	 M523.7,476.3c13.1,13,13.2,34.1,0.2,47.1c-0.1,0.1-0.1,0.1-0.2,0.2c-13,13.1-34.1,13.2-47.1,0.2c-0.1-0.1-0.1-0.1-0.2-0.2
	L400,447.3l-76.3,76.3c-13,13.1-34.1,13.2-47.1,0.2c-0.1-0.1-0.1-0.1-0.2-0.2c-13.1-13-13.2-34.1-0.2-47.1c0.1-0.1,0.1-0.1,0.2-0.2
	l76.3-76.3l-76.3-76.3c-13.1-13.1-13.1-34.3,0-47.3s34.3-13.1,47.3,0l76.3,76.3l76.3-76.3c13.1-13.1,34.3-13.1,47.3,0
	c13.1,13.1,13.1,34.3,0,47.3L447.3,400L523.7,476.3z"/>
</svg>
