<?xml version="1.0" encoding="utf-8"?>
<!-- License: CC Attribution. Made by Dimas nanda: https://www.figma.com/@dimasnanda -->
<svg width="800px" height="800px" viewBox="0 0 64 64" fill="none" xmlns="http://www.w3.org/2000/svg">
<path d="M36.03 25.291C35.4996 25.291 34.9909 25.0803 34.6158 24.7052C34.2407 24.3301 34.03 23.8214 34.03 23.291V6.271H16C14.4087 6.271 12.8826 6.90313 11.7574 8.02835C10.6321 9.15357 10 10.6797 10 12.271V52.351C10 53.9423 10.6321 55.4684 11.7574 56.5936C12.8826 57.7188 14.4087 58.351 16 58.351H47.06C48.6504 58.3481 50.1748 57.715 51.2994 56.5904C52.424 55.4658 53.0571 53.9414 53.06 52.351V25.291H36.03Z" fill="#999999"/>
<path d="M51.88 21.291L38.03 7.44092V8.27094V21.291H51.06H51.88Z" fill="#000000"/>
</svg>