<?xml version="1.0" encoding="UTF-8"?>
<svg id="Layer_1" xmlns="http://www.w3.org/2000/svg" version="1.1" viewBox="0 0 800 800">
  <!-- Generator: Adobe Illustrator 29.0.1, SVG Export Plug-In . SVG Version: 2.1.0 Build 192)  -->
  <defs>
    <style>
      .st0 {
        fill: #ff7900;
      }

      .st1 {
        fill: #ffca9f;
      }
    </style>
  </defs>
  <path class="st1" d="M729.8,271.3c0,9.8-2.7,19.5-7.8,27.9-5.2,8.4-12.6,15.1-21.4,19.5l-272.1,136c-7.3,3.7-15.4,5.6-23.6,5.6-8.2,0-16.3-1.9-23.6-5.6L109,318.6c-8.8-4.4-16.2-11.1-21.4-19.4-5.2-8.4-7.9-18-7.9-27.8,0-9.8,2.7-19.5,7.9-27.9,5.2-8.4,12.6-15.1,21.4-19.5L381.1,88c7.3-3.7,15.4-5.6,23.6-5.5,8.2,0,16.3,1.8,23.6,5.5l272.1,136c8.8,4.4,16.2,11.1,21.4,19.4,5.2,8.3,7.9,18,7.9,27.8Z"/>
  <path class="st0" d="M700.5,349.4c8.8,4.4,16.2,11.1,21.4,19.5,5.2,8.4,7.9,18,7.9,27.9,0,9.8-2.7,19.5-7.9,27.8-5.2,8.3-12.6,15.1-21.4,19.4l-272.1,136.1c-7.4,3.6-15.4,5.5-23.6,5.5-8.2,0-16.3-1.9-23.6-5.5L109,444c-8.8-4.4-16.2-11.1-21.3-19.5-5.1-8.4-7.9-18-7.8-27.8,0-9.8,2.7-19.5,7.8-27.9,5.2-8.4,12.6-15.1,21.4-19.5l2.8-1.4,55.9,28,202.3,101c10.8,5.4,22.7,8.2,34.8,8.3,12.1,0,24-2.9,34.9-8.3l202.1-101,56-28,2.8,1.4Z"/>
  <path class="st1" d="M700.5,474.9c8.8,4.4,16.2,11.1,21.4,19.4,5.2,8.4,7.9,18,7.9,27.8,0,9.8-2.7,19.5-7.9,27.8-5.2,8.4-12.6,15.1-21.4,19.4l-272.1,136.1c-7.3,3.7-15.4,5.6-23.6,5.6-8.2,0-16.3-1.9-23.6-5.6l-272.1-136.1c-8.8-4.4-16.2-11.1-21.3-19.5-5.1-8.4-7.9-18-7.8-27.8,0-9.8,2.6-19.5,7.8-27.8,5.2-8.4,12.6-15.1,21.4-19.4l2.9-1.5,56,28,202.3,101.1c10.8,5.3,22.6,8.1,34.6,8.1,12.1,0,23.9-2.8,34.7-8.1l202.4-101.1,55.8-28,2.9,1.5Z"/>
</svg>