<?xml version="1.0" encoding="iso-8859-1"?>
<!-- Generator: Adobe Illustrator 16.0.0, SVG Export Plug-In . SVG Version: 6.00 Build 0)  -->
<!DOCTYPE svg PUBLIC "-//W3C//DTD SVG 1.1//EN" "http://www.w3.org/Graphics/SVG/1.1/DTD/svg11.dtd">
<!-- License: CC0. Made by SVG Repo: https://www.svgrepo.com/svg/172709/tapir-mammal-shape-from-side -->
<svg version="1.1" id="Capa_1" xmlns="http://www.w3.org/2000/svg" xmlns:xlink="http://www.w3.org/1999/xlink" x="0px" y="0px"
	 width="584.792px" height="584.792px" viewBox="0 0 584.792 584.792" style="enable-background:new 0 0 584.792 584.792;"
	 xml:space="preserve">
<g>
	<g>
		<path fill="#FFFFFF" d="M571.98,214.149c-16.066-13.431-32.387-26.577-48.861-39.506c-8.393-6.589-17.346-12.469-25.77-18.475
			c2.541-6.577,4.961-12.827,7.377-19.078c-0.666-0.424-1.33-0.849-1.996-1.272c-6.715,3.545-13.325,7.307-20.167,10.587
			c-9.486,4.545-12.652,2.391-12.525-8.005c0.049-4.194,0.139-8.405-0.167-12.583c-0.123-1.661-0.882-4.104-2.049-4.626
			c-1.154-0.518-3.704,0.465-4.761,1.607c-6.12,6.614-11.983,13.472-18.051,20.384c-51.481-0.763-104.072-0.833-156.603-2.628
			c-25.994-0.885-51.894-4.81-77.814-7.609c-25.961-2.803-52.016-7.177-77.871-0.494c-43.603,11.273-83.354,30.114-114.457,63.726
			c-13.978,15.104-22.35,32.774-16.242,54.301c0.604,2.134,1.464,4.194,2.399,6.826c2.199-1.432,3.672-2.387,5.651-3.676
			c11.134,20.144,30.979,31.31,46.716,46.642c14.545,14.17,14.994,19.816,3.374,40.376c-0.906,1.604-2.011,3.316-3.468,4.357
			c-14.876,10.637-13.893,25.863-11.049,40.902c3.317,17.552,4.99,35.038,3.04,52.807c-0.583,5.3,1.032,8.992,6.353,10.943
			c2.338,0.856,4.549,2.366,6.463,3.994c7.319,6.234,14.545,9.539,23.215,9.824c0.061,0.013,1.848,0.196,2.603,0.086
			c1.35,0.045,2.701,0.098,4.043,0.18c1.008,0.061,2.485-0.56,3.044-1.354c1.379-1.963,5.797,1.358,13.868-4.606
			c2.501-1.849-4.949-9.486-3.068-12.351c-4.052-6.385-10.2-11.982-19.278-13.603c-5.349-0.955-8.197-3.664-7.813-9.515
			c0.196-2.975-0.559-6.018-0.955-9.021c-2.615-19.87,6.458-34.04,21.958-45.08c3.064-2.183,6.185-4.354,9.775-6.862
			c0.714,0.195,1.432,0.367,2.163,0.518c5.312,25.19,16.671,48.283,16.773,74.052c0.021,5.088,2.142,8.715,7.054,10.972
			c8.846,4.067,17.426,8.702,26.259,12.799c2.105,0.979,4.766,0.771,7.168,1.109c-0.22-2.374-0.404-4.749-0.681-7.115
			c-0.126-1.102-0.428-2.183-0.673-3.382c5.814-1.8,11.302-3.501,16.79-5.202c0.179-1.094,0.363-2.188,0.542-3.284
			c-2.729-1.592-5.398-3.338-8.107-4.986c-0.873-0.873-1.995-1.506-3.248-1.897c-1.693-0.946-3.411-1.827-5.19-2.574
			c-8.311-3.488-10.669-5.875-10.979-14.916c-0.232-6.757,0.343-13.599-0.506-20.266c-2.966-23.24,3.929-44.089,14.329-64.313
			c2.771-5.39,5.353-7.829,12.277-6.222c15.178,3.529,30.682,5.646,46.042,8.393c4.097,0.734,8.164,1.652,13.448,2.729
			c-1.118,11.669-2.354,22.901-3.231,34.162c-1.644,21.098-3.166,42.203-4.561,63.317c-0.628,9.526,13.603,25.643,22.791,25.618
			c1.767-0.004,3.525-2.611,4.753-3.595c7.442-0.604,14.671-0.641,21.673-1.934c5.953-1.102,6.634-4.488,2.179-8.764
			c-5.173-4.962-10.955-9.307-15.916-14.456c-1.84-1.913-3.003-5.385-2.873-8.074c0.184-3.867,1.269-7.932,2.946-11.444
			c7.871-16.479,16.08-32.799,24.774-50.408c7.67,14.962,14.333,28.699,21.706,42.049c4.569,8.278,9.931,16.165,15.463,23.848
			c4.912,6.817,10.032,13.101,9.719,22.374c-0.2,5.908,2.166,6.337,7.552,4.297c3.252-1.232,7.462-1.171,10.922-0.352
			c5.843,1.384,11.449,3.795,17.132,5.839c3.864,1.392,6.744,1.244,7.911-3.615c1.302-5.409,5.912-4.912,10.114-5.304
			c1.82-0.167,3.546-1.334,5.316-2.048c-1.162-1.746-2.329-3.497-3.492-5.243c-0.245,0.069-0.489,0.147-0.73,0.229
			c-0.126-0.522-0.375-0.971-0.706-1.347l0.151,0.024c-0.086-0.053-0.176-0.102-0.266-0.15c-0.477-0.494-1.102-0.845-1.807-1.036
			c-7.246-4.158-14.582-8.181-21.563-12.75c-2.248-1.474-4.133-4.651-4.696-7.356c-2.546-12.297-4.732-24.68-6.72-37.083
			c-2.064-12.881-3.623-25.843-5.671-38.728c-0.612-3.855,0.367-5.859,4.011-7.564c15.084-7.046,27.43-16.891,35.835-31.938
			c9.506-17.017,25.744-27.253,41.868-37.246c1.584-0.979,3.48-1.611,4.778-2.872c7.14-6.903,15.043-8.36,24.606-5.361
			c17.891,5.61,36.255,3.701,54.675,3.215c12.775-0.335,25.402,0.763,38.014-5.108c1.596,3.203,3.346,5.94,4.338,8.931
			c1.064,3.207,1.521,6.699,6.104,5.884c4.953-0.882,11.398,1.375,13.643-5.676c0.977-3.064,1.764-6.377,1.689-9.555
			c-0.199-8.352-0.926-16.695-1.432-25.043C582.861,225.125,577.893,219.09,571.98,214.149z M343.795,453.021
			c0.191-0.607,0.383-1.22,0.575-1.827c0.302,0.326,0.645,0.615,1.023,0.873C344.872,452.384,344.346,452.707,343.795,453.021z
			 M379.911,436.668c-0.213,0.024-0.429,0.054-0.641,0.078c-0.441-0.665-1-1.257-1.657-1.759
			C378.389,435.342,379.156,435.885,379.911,436.668z"/>
	</g>
</g>
</svg>
