<?xml version="1.0" encoding="UTF-8"?>
<svg id="Uploaded_to_svgrepo.com" xmlns="http://www.w3.org/2000/svg" version="1.1" viewBox="0 0 800 800">
  <!-- Generator: Adobe Illustrator 29.0.1, SVG Export Plug-In . SVG Version: 2.1.0 Build 192)  -->
  <defs>
    <style>
      .st0 {
        fill: #840079;
      }

      .st1 {
        fill: #fc5ef4;
      }

      .st2 {
        fill: #c1c1c1;
      }

      .st3 {
        fill: #707070;
      }
    </style>
  </defs>
  <path class="st1" d="M524.9,387c.6-17.8-11.3-35.9-37.2-49.4v-33c30-15.5,38.7-34.9,37.2-51.3v-38c0-16.7-11-33.4-32.9-46-44.2-25.5-115.6-25.6-159.5-.3-35.6,20.5-32.4,45.9-32.4,45.9v38.4c-1.1,16.1,7.5,35.3,37.2,50.8,0,0,0,35.8,0,33-26,13.4-37.8,31.5-37.2,49.3v37.2c-1.2,17.5,9.5,35.3,32.9,48.8,44.2,25.4,115.6,25.6,159.5.3,23.4-13.5,34-31.4,32.4-49.1v-36.5h0Z"/>
  <path class="st0" d="M524.9,385.5v38c1.6,17.7-9,35.6-32.4,49.1-43.9,25.3-115.3,25.2-159.5-.3-23.4-13.5-34.1-31.2-32.9-48.8v-38.4c0,16.6,10.8,33.3,32.9,46,44.2,25.4,115.6,25.6,159.5.3,21.9-12.7,32.4-29.3,32.4-45.9h0ZM524.9,215.1c.3,59.7-125.1,84.1-191.9,45.6-22.1-12.7-32.8-29.4-32.9-46v38.4h0c-1.1,16.1,7.5,35.3,37.2,50.8v44.5h.1c-.4,11.4,6.9,22.9,22,31.6,29.5,17,77,17.1,106.3.2,15.2-8.8,22.3-20.3,21.6-31.8h.2v-44c30-15.5,38.7-34.9,37.2-51.3h0v-38h.2,0Z"/>
  <path class="st2" d="M387.5,489.6v138.4h0s24.9,47,25,47l25-47v-70.7c-9.7-25.1-22-47.6-36.6-66.5-4.5-.3-9-.6-13.4-1.2h0Z"/>
  <path class="st3" d="M400.9,490.8c14.6,18.9,26.8,41.4,36.6,66.5v-67.5c-12,1.5-24.3,1.8-36.6,1Z"/>
</svg>