<?xml version="1.0" encoding="UTF-8"?>
<svg id="Layer_1" xmlns="http://www.w3.org/2000/svg" version="1.1" viewBox="0 0 800 800">
  <!-- Generator: Adobe Illustrator 29.0.1, SVG Export Plug-In . SVG Version: 2.1.0 Build 192)  -->
  <defs>
    <style>
      .st0 {
        isolation: isolate;
      }
    </style>
  </defs>
  <path class="st0" d="M584.3,259c-2.3-.3-4.7-.3-7,0-51.7-1.7-92.7-44-92.7-96s43-96.3,96.3-96.3,96.3,43,96.3,96.3c-.3,52-41.3,94.3-93,96Z"/>
  <path class="st0" d="M693,490c-37.3,25-89.7,34.3-138,28,12.7-27.3,19.3-57.7,19.7-89.7,0-33.3-7.3-65-21.3-92.7,49.3-6.7,101.7,2.7,139.3,27.7,52.7,34.7,52.7,91.7.3,126.7Z"/>
  <path class="st0" d="M214.7,259c2.3-.3,4.7-.3,7,0,51.7-1.7,92.7-44,92.7-96s-43-96.3-96.3-96.3-96.3,43-96.3,96.3c.3,52,41.3,94.3,93,96Z"/>
  <path class="st0" d="M218.3,428.3c0,32.3,7,63,19.7,90.7-47,5-96-5-132-28.7-52.7-35-52.7-92,0-127,35.7-24,86-33.7,133.3-28.3-13.7,28-21,59.7-21,93.3Z"/>
  <path d="M404,529c-2.7-.3-5.7-.3-8.7,0-61.3-2-110.3-52.3-110.3-114.3s51-114.7,114.7-114.7,114.7,51.3,114.7,114.7-48.7,112.3-110.3,114.3Z"/>
  <path d="M295.7,598c-50.3,33.7-50.3,89,0,122.3,57.3,38.3,151.3,38.3,208.7,0,50.3-33.7,50.3-89,0-122.3-57-38.3-151-38.3-208.7,0Z"/>
</svg>