<?xml version="1.0" encoding="iso-8859-1"?>
<!-- Generator: Adobe Illustrator 18.1.1, SVG Export Plug-In . SVG Version: 6.00 Build 0)  -->
<!-- License: CC0. Made by SVG Repo: https://www.svgrepo.com/svg/114499/rewind-arrow-draw -->
<svg version="1.1" id="Capa_1" xmlns="http://www.w3.org/2000/svg" xmlns:xlink="http://www.w3.org/1999/xlink" x="0px" y="0px"
	 viewBox="0 0 318.46 318.46" style="enable-background:new 0 0 318.46 318.46;" xml:space="preserve">
<g>
	<path style="fill:#010002;" d="M185.878,39.294c0.511-8.512,0.979-17.03,1.382-25.558c0.468-9.883-12.069-17.519-20.462-11.738
		c-18.765,12.912-40.619,19.358-58.573,33.673c-4.4,3.508-5.374,11.966-2.127,16.475c13.668,18.999,30.519,36.415,50.192,49.311
		c1.501,1.789,3.568,2.991,5.912,3.59c8.191,3.862,15.654-1.572,17.965-8.664c0.468-1.164,0.854-2.393,1.028-3.775
		c1.088-8.708,1.936-17.427,2.692-26.156c80.819,6.995,112.197,95.771,78.23,166.495c-19.265,40.108-56.626,58.524-99.823,58.377
		C84.298,291.063,35.929,237.01,43.38,158.878c1.664-17.459-25.547-17.302-27.195,0c-7.81,81.896,39.466,146.224,120.867,157.684
		c56.996,8.028,109.456-9.045,141.834-58.008c26.934-40.728,31.101-96.81,14.044-141.97
		C275.188,69.617,233.764,43.053,185.878,39.294z M156.578,67.849c-6.978-5.956-13.451-12.575-19.303-19.581
		c6.902-4.09,14.223-7.484,21.528-10.933C158.204,47.518,157.481,57.689,156.578,67.849z"/>
</g>
</svg>
