<?xml version="1.0" encoding="iso-8859-1"?>
<!-- Generator: Adobe Illustrator 19.0.0, SVG Export Plug-In . SVG Version: 6.00 Build 0)  -->
<!-- License: CC0. Made by SVG Repo: https://www.svgrepo.com/svg/293154/freight-port -->
<svg version="1.1" id="Layer_1" xmlns="http://www.w3.org/2000/svg" xmlns:xlink="http://www.w3.org/1999/xlink" x="0px" y="0px"
	 viewBox="0 0 511.998 511.998" style="enable-background:new 0 0 511.998 511.998;" xml:space="preserve">
<g>
	<g>
		<path d="M471.926,238.088h-7.55l-52.56-70.931V99.183h99.948l-41.253-78.904H0v78.904h82.666v392.536h97.463V99.183H381.4v67.974
			l-52.56,70.931h-7.55h-40.073v151.403h40.073h30.417h9.655h30.417h9.655h30.417h9.655h30.417h40.073V238.088H471.926z
			 M441.155,50.696h10.936l9.448,18.07h-20.384V50.696z M58.677,68.766h-28.26v-18.07h28.26V68.766z M89.094,50.696h28.26v18.07
			h-28.26V50.696z M136.11,99.183l-23.027,33.704V99.183H136.11z M136.11,197.317l-23.027,33.704v-33.704H136.11z M136.11,295.451
			l-23.027,33.704v-33.704H136.11z M113.083,393.586h23.027l-23.027,33.704V393.586z M149.712,461.303h-23.027l23.027-33.704
			V461.303z M149.712,363.169h-23.027l23.027-33.704V363.169z M149.712,265.034h-23.027l23.027-33.704V265.034z M149.712,166.9
			h-23.027l23.027-33.704V166.9z M176.031,68.766h-28.26v-18.07h28.26V68.766z M234.707,68.766h-28.26v-18.07h28.26V68.766z
			 M293.384,68.766h-28.26v-18.07h28.26V68.766z M352.061,68.766h-28.26v-18.07h28.26V68.766z M321.29,359.074h-9.655v-90.568h9.655
			V359.074z M382.478,50.696h28.26v18.07h-28.26V50.696z M361.363,359.074h-9.655v-90.568h9.655V359.074z M401.436,359.074h-9.655
			v-90.568h9.655V359.074z M401.436,238.088h-9.656h-25.083l29.911-40.366l29.911,40.366H401.436z M441.509,359.074h-9.655v-90.568
			h9.655V359.074z M481.583,359.074h-9.655v-90.568h9.655V359.074z"/>
	</g>
</g>
</svg>
