<?xml version="1.0" encoding="UTF-8"?>
<svg id="Layer_1" xmlns="http://www.w3.org/2000/svg" version="1.1" viewBox="0 0 645.1 645.1">
  <!-- Generator: Adobe Illustrator 29.0.1, SVG Export Plug-In . SVG Version: 2.1.0 Build 192)  -->
  <defs>
    <style>
      .st0 {
        fill: #2f2e41;
      }

      .st1 {
        fill: #ffe1ca;
      }

      .st2 {
        fill: #3f3d56;
      }

      .st3 {
        fill: #ffd0a9;
      }

      .st4 {
        fill: #ffb8b8;
      }

      .st5 {
        fill: #f67a0a;
      }

      .st6 {
        fill: #e6e6e6;
      }
    </style>
  </defs>
  <circle class="st6" cx="498.1" cy="149.5" r="119.1"/>
  <path class="st2" d="M521.4,171.1c-3.6,13.3-15.9,21.5-15.9,21.5,0,0-6.5-13.3-2.9-26.6s15.9-21.5,15.9-21.5c0,0,6.5,13.3,2.9,26.6h0Z"/>
  <path class="st2" d="M493.5,240.6c6.9,11.9,4,26.5,4,26.5,0,0-14-4.8-20.9-16.8s-4-26.5-4-26.5c0,0,14,4.8,20.9,16.8Z"/>
  <path class="st2" d="M486.4,86c6.9,11.9,4,26.5,4,26.5,0,0-14-4.8-20.9-16.8-6.9-11.9-4-26.5-4-26.5,0,0,14,4.8,20.9,16.8Z"/>
  <path class="st2" d="M497.4,268.3l-.4-1.5.2.8-.2-.8s5.6-1.4,9.7-8.9c5.4-9.9,8.8-30.8-5.9-74.1-13.6-39.9-12-70.7-8.3-89.5,4-20.4,11.2-31.3,11.5-31.7l1.3.9c0,0-7.3,11.1-11.3,31.2-3.7,18.6-5.2,49.1,8.2,88.6,15,44,11.4,65.3,5.8,75.5-4.5,8.1-10.4,9.6-10.7,9.6h0Z"/>
  <circle class="st5" cx="504.7" cy="62.9" r="19.8"/>
  <g>
    <path class="st6" d="M91.1,536.2c-3.9,14.4-17.2,23.3-17.2,23.3,0,0-7-14.4-3.1-28.8s17.2-23.3,17.2-23.3c0,0,7,14.4,3.1,28.8Z"/>
    <path class="st6" d="M60.8,611.5c7.4,12.9,4.3,28.7,4.3,28.7,0,0-15.2-5.2-22.6-18.2s-4.3-28.7-4.3-28.7c0,0,15.2,5.2,22.6,18.2Z"/>
    <path class="st6" d="M53.1,444c7.4,12.9,4.3,28.7,4.3,28.7,0,0-15.2-5.2-22.6-18.2s-4.3-28.7-4.3-28.7c0,0,15.2,5.2,22.6,18.2Z"/>
    <path class="st6" d="M65,641.5l-.4-1.7.2.8-.2-.8s6-1.5,10.5-9.7c5.9-10.7,9.6-33.3-6.4-80.3-14.7-43.2-13-76.6-8.9-97,4.4-22.1,12.2-33.9,12.5-34.4l1.4,1c0,.1-7.9,12-12.2,33.8-4,20.2-5.7,53.2,8.9,96,16.2,47.6,12.3,70.8,6.2,81.8-4.9,8.8-11.3,10.4-11.6,10.4h0Z"/>
    <circle class="st6" cx="73" cy="419" r="21.5"/>
  </g>
  <rect class="st2" y="643.2" width="645.1" height="2"/>
  <path class="st4" d="M321.7,186.6l13.8,35.7,35.7,75.4s36.6,49.2,17.2,52.9-32-44.3-32-44.3l-49.9-77.3,15.1-42.4h0Z"/>
  <circle class="st4" cx="293.2" cy="77.1" r="30"/>
  <path class="st4" d="M270.2,88.1s1,33-12,40c0,0,27-1,41,21h13s-20-14-10-48c0,0-32-13-32-13Z"/>
  <path class="st1" d="M414.2,510.1s-63,15-108-3-50-6-93-1-18-18-18-18c0,0,73-190,84-210s6-33,6-33l-21-29s-4.9-12.6-10.2-27.3c-6.1-17-12.8-36.8-12.8-42.7s7.3-12.7,13.2-16.8c2.5-1.7,5-3.2,7.7-4.6,12.9-3.3,42.1,18.3,42.1,18.3,0,0,8,6,29,21s12,46,12,46l6,81c40,40,63,219,63,219h0Z"/>
  <path class="st4" d="M270.2,137.1s-18-21-32,21-17,75-17,75l-26,87s-28,47-7,50,27-50,27-50l52-138s17-31,3-45Z"/>
  <path class="st0" d="M212.2,495.1l-27,42s-25,3-28,19-12,25-12,25l4,4,19-13,2,26s11,31,29,24-3-28-3-28l10-35,56-70-50,6h0Z"/>
  <path class="st0" d="M359.2,506.1l16,72s-12,22-6,36,6,30,6,30h9l4-24,22,23s48,8,48-8-26-16-26-16l-24-40-10-73h-39Z"/>
  <path class="st0" d="M278.2,32.1h0c1.6,0,3.3.2,4.9.5,2.9-1.4,6.1-2.1,9.3-2.2h.8c16.3,0,29.6,14.8,29.6,33h-5.5l-.9-6.7-1.3,6.7h-4.6c-11.9,5.2-5.5,50.2,2.1,50.2h-8.3l-4.8-12.5,1.2,12.5h-53.2l-4.4-11.3,1.1,11.3h-6v-26.4c0-30.5,17.8-55.1,39.8-55.1h.2Z"/>
  <polygon class="st3" points="104.8 448 104.8 398.5 75.3 398.5 75.3 477.5 154.2 477.5 154.2 448 104.8 448"/>
  <rect class="st5" x="114.3" y="359.5" width="78.9" height="78.9"/>
</svg>