<?xml version="1.0" encoding="UTF-8"?>
<svg id="Layer_1" xmlns="http://www.w3.org/2000/svg" version="1.1" viewBox="0 0 644.9 644.9">
  <!-- Generator: Adobe Illustrator 29.0.1, SVG Export Plug-In . SVG Version: 2.1.0 Build 192)  -->
  <defs>
    <style>
      .st0 {
        fill: #2f2e41;
      }

      .st1 {
        fill: #3f3d56;
      }

      .st2 {
        fill: #f1f1f1;
      }

      .st3 {
        fill: #cbcbcb;
      }

      .st4 {
        fill: #bf5200;
      }

      .st5 {
        isolation: isolate;
        opacity: .2;
      }

      .st6 {
        fill: #ffcca9;
      }

      .st7 {
        fill: #f67a0a;
      }

      .st8 {
        fill: #e6e6e6;
      }

      .st9 {
        fill: #ffb7b7;
      }
    </style>
  </defs>
  <polygon class="st3" points="483.2 179 466.6 170.2 467.8 169.5 484.5 178.4 483.2 179"/>
  <polygon class="st3" points="468.7 179 467.5 178.4 484.1 169.5 485.3 170.2 468.7 179"/>
  <rect class="st3" x="345.8" y="109.7" width="1.8" height="5.3" transform="translate(88.7 369.8) rotate(-62.9)"/>
  <path class="st3" d="M442.3,162.4l-9.4-4.8.8-1.6,9.4,4.8-.8,1.6ZM423.6,152.8l-9.4-4.8.8-1.6,9.4,4.8-.8,1.6ZM404.9,143.3l-9.4-4.8.8-1.6,9.4,4.8-.8,1.6ZM386.2,133.7l-9.4-4.8.8-1.6,9.4,4.8-.8,1.6ZM367.5,124.1l-9.4-4.8.8-1.6,9.4,4.8-.8,1.6Z"/>
  <rect class="st3" x="453.3" y="164.8" width="1.8" height="5.3" transform="translate(98.2 495.5) rotate(-62.9)"/>
  <path class="st6" d="M97.6,228.4v1.6c-.2,3.1-1,6.2-2.3,9h0c0,.1,0,.3-.2.4-.4.8-.8,1.6-1.3,2.3-4.5,7-12.1,11.3-20.4,11.5l.2,14.2,3.2-1.7.6,1.1-3.8,2,.5,26.3v.4l-2.5.6v-.4l.8-42.4c-6.6,0-13-2.9-17.6-7.7-.2-.2-.3-.3-.5-.5h0c-1.9-2.1-3.4-4.5-4.5-7h0c-5.2-12.2,0-26.2,11.8-32.1,0,0,.2,0,.3-.1,11.7-5.6,25.7-1.4,32.3,9.8.2.3.3.5.4.8,2,3.6,3,7.7,3,11.9h0Z"/>
  <circle class="st7" cx="94.2" cy="206.4" r="32.7"/>
  <path class="st4" d="M70.1,184.6c-7.1,16.6.6,35.8,17.2,42.9,12.9,5.5,27.9,2.2,37.2-8.3-7.1,16.6-26.3,24.3-42.9,17.2s-24.3-26.3-17.2-42.9c1.4-3.3,3.3-6.3,5.6-8.9h.1Z"/>
  <polygon class="st1" points="96 297.4 92.6 296.5 92.7 296.1 93.7 241.8 93.7 239.1 93.7 239 93.9 229.5 94.1 215.7 94.1 215.7 94.3 206.4 94.4 206.4 94.6 216.5 94.8 229.7 95 239 95 239.1 95 239.5 95 239.5 95.3 257.7 95.3 259.5 96 297.1 96 297.4"/>
  <rect class="st1" x="94.2" y="256.7" width="6.1" height="1.6" transform="translate(-108.8 75.1) rotate(-27.8)"/>
  <path d="M517.8,100.7c-41.2-2.4-82.6-1.8-123.8,1.9-19.8,1.8-40,3.7-59.4,8.1-15.7,3.5-33.9,9.4-43.6,23.1-4.1,5.6-5.4,12.8-3.5,19.5,2.3,7.8,8.1,14.3,14.3,19.4,14.2,11.7,31.8,18.6,47.6,27.9,28.7,17,55,40,71.9,69.1,7.4,12.8,14.5,29.9,6.2,44-8.1,13.8-26.2,18.6-40.9,20.9-18.5,2.8-37.5,2.1-56.1.5-20.4-1.9-40.6-4.9-60.7-8.9-39.3-7.5-78.2-17.1-118-21.5-20-2.3-40.1-2.9-60.2-1.7-18.1,1.2-36.4,4.1-53.4,10.6-13.1,5-27.1,12.7-34.2,25.4-6.8,12.2-4.2,26.4,3.3,37.7,9,13.6,22.9,22.9,37.4,29.7,16.5,7.8,34.2,12.8,51.9,17.1,9,2.2,18,4.1,27,6.1,1.9.4,2.7-2.5.8-2.9-18.2-3.9-36.4-7.9-54.2-13.6-16.4-5.3-33.2-12-46.7-23.1-10.9-8.9-21.2-22-20.6-36.9.6-15,13.2-25.4,25.5-31.9,15.4-8,32.9-12,50-14,19.6-2.2,39.4-2.5,59.1-.8,39.7,3,78.6,12.1,117.5,20,37.8,7.7,76.9,14.8,115.6,12.8,15.4-.8,31.8-3,45.4-10.7,6.2-3.6,11.8-8.6,15-15.1,2.8-6.2,3.7-13.1,2.6-19.8-2.2-14.8-11-28.5-19.7-40.2-9.6-12.8-20.7-24.3-33.1-34.3-13.6-11-28.3-20.5-43.8-28.6-8.2-4.3-16.6-8.5-24.4-13.5-7.5-4.8-15-10.6-19.6-18.4-4-6.8-4.7-14.5-.6-21.3,4.2-6.9,11.4-11.8,18.5-15.3,17.1-8.5,37.1-10.8,55.8-13.1,40.3-5,80.9-7,121.5-6.1,9.9.2,19.7.6,29.6,1.2,1.9,0,1.9-2.9,0-3h0v-.3Z"/>
  <path class="st1" d="M491.6,4.5l6.2-5c-4.8-.5-6.8,2.1-7.6,4.2-3.8-1.6-7.9.5-7.9.5l12.5,4.5c-.6-1.7-1.7-3.1-3.2-4.2Z"/>
  <path class="st1" d="M461.4,20.3l6.2-5c-4.8-.5-6.8,2.1-7.6,4.2-3.8-1.6-7.9.5-7.9.5l12.5,4.5c-.6-1.7-1.7-3.1-3.2-4.2Z"/>
  <path class="st1" d="M491.6,45.3l6.2-5c-4.8-.5-6.8,2.1-7.6,4.2-3.8-1.6-7.9.5-7.9.5l12.5,4.5c-.6-1.7-1.7-3.1-3.2-4.2Z"/>
  <g id="e2dfab6d-8627-4cc0-b13e-69de57259a01">
    <circle id="bedd3b2f-f695-46eb-9812-80ad4d1341b6" class="st6" cx="398.2" cy="33.9" r="18.8"/>
    <path id="efdddea5-7f44-48b8-bec9-83339a7f085f-373" class="st7" d="M457.1,91.7h-92.4l43.5-75.4c.8-1.5,2.7-2,4.2-1.2.5.3.9.7,1.2,1.2l29.2,50.6,1.4,2.4,12.9,22.4h0Z"/>
    <path id="f8d22fd6-a75d-4da9-80c1-fba8d7f50740-374" class="st4" d="M508.3,91.7h-79.6l15.4-22.4,1.1-1.6,20.1-29.2c1.4-1.8,4-2,5.7-.7.1,0,.2.2.3.3.1,0,.2.2.3.4l36.7,53.2Z"/>
  </g>
  <path class="st2" d="M377,264.7c8.7,4.4,14,10.1,14,16.4,0,13.6-24.6,24.6-55,24.6s-25.3-2.1-34.8-5.6c10.1,5,24.7,8.2,41,8.2,30.4,0,55-11,55-24.6s-7.9-14.6-20.2-19.1h0Z"/>
  <path class="st2" d="M396.4,274c9.8,4.9,15.8,11.4,15.8,18.6,0,15.4-27.8,27.8-62.1,27.8s-28.6-2.4-39.3-6.3c11.4,5.7,27.9,9.3,46.2,9.3,34.3,0,62.1-12.5,62.1-27.8s-8.9-16.4-22.8-21.5h0Z"/>
  <path class="st2" d="M369.5,268.8c6.1,3.1,9.9,7.1,9.9,11.6,0,9.6-17.4,17.4-38.8,17.4-8.3.1-16.6-1.2-24.5-3.9,7.1,3.5,17.4,5.8,28.9,5.8,21.4,0,38.8-7.8,38.8-17.4s-5.5-10.3-14.2-13.4h0Z"/>
  <rect class="st6" x="322.8" y="206.3" width="2.6" height="62.9"/>
  <path class="st3" d="M499,159.6h0v-1.6l8.3-12-8.3,10.9v.3l-.3-12.3,7.1-12.5-7.2,10.3v-25.4h0l-.5,20.1-6.5-8.1,6.5,9.9v11c-.1,0-6.1-10.7-6.1-10.7l6,12.3v6.1l-.3,16.9v1.3h1.6l-.4-16.2h0v-.3Z"/>
  <path class="st3" d="M459.4,164.9h0v-1.6l8.3-12-8.3,10.9v.3l-.3-12.3,7.1-12.5-7.2,10.3v-25.4h0l-.5,20.1-6.5-8.1,6.5,9.9v11c-.1,0-6.1-10.7-6.1-10.7l6,12.3v6.1l-.3,16.9v1.3h1.6l-.4-16.2h0v-.3Z"/>
  <path class="st3" d="M478.7,148.2h0v-1.6l8.3-12-8.3,10.9v.3l-.3-12.3,7.1-12.5-7.2,10.3v-25.4h0l-.5,20.1-6.5-8.1,6.5,9.9v11c-.1,0-6.1-10.7-6.1-10.7l6,12.3v6.1l-.3,16.9v1.3h1.6l-.4-16.2h0v-.3Z"/>
  <circle class="st7" cx="151.6" cy="429.9" r="10.6"/>
  <g>
    <path id="efdf5e1f-6b90-40c1-9274-afa2b16f39be-369" class="st8" d="M347.7,643.8s-12.8-31.4,25.5-54.9l-25.5,54.9Z"/>
    <path id="af7fe47f-56e6-4bb6-aa0f-d6efaf86a160-370" class="st8" d="M332,643.2s-3.9-22.4-34-22.2l34,22.2Z"/>
    <path id="a08d42bc-6ae2-46d7-9736-aba59e52cc48-371" class="st8" d="M602.4,643.8s-16.8-41.5,33.7-72.6l-33.7,72.6Z"/>
    <path id="bafd7749-4c33-42a1-9524-e744b9f16454-372" class="st8" d="M581.6,643.1s-5.1-29.6-44.9-29.3"/>
    <polygon class="st9" points="536.7 624.9 526.9 628.5 508.3 592.5 522.7 587.2 536.7 624.9"/>
    <path class="st0" d="M542.7,633.4l-31.5,11.7v-.4c-2.7-6.8.8-14.3,7.6-16.8h0l19.3-7.2,4.7,12.7h0Z"/>
    <polygon class="st9" points="440.5 635 430.1 635 425.1 594.8 440.5 594.8 440.5 635"/>
    <path class="st0" d="M442.3,645.1h-33.6v-.4c0-7.2,5.9-13.1,13.1-13.1h20.5v13.5Z"/>
    <path class="st0" d="M488.3,356l-3.4-6.8-28.9,14.5.9,6-5.5,7.2s-9.4,5.1-7.7,22.1l1.7,16.2,2.1,20.8-14.9,51.5-7.7,68.1-5.5,54.9,26.8-1.3,24.7-89.3,43.4,96.2,29.8-7.7-40.8-95.3-5.1-40s3.4-21.3-12.8-35.7l2.6-7.7v-9.4l8.5-45-8.1-19.1v-.2Z"/>
    <rect class="st5" x="446" y="486.5" width="69" height="1" transform="translate(-119 816.7) rotate(-74.2)"/>
    <rect class="st1" x="445.7" y="435.9" width="41.7" height="4.3"/>
    <ellipse class="st1" cx="445.7" cy="438.5" rx="1.7" ry="4.3"/>
    <circle class="st9" cx="464.5" cy="325.1" r="22.7"/>
    <circle class="st0" cx="499.2" cy="296.9" r="20.1" transform="translate(126.2 742.1) rotate(-80.8)"/>
    <path class="st0" d="M524.7,294.7c3.2,10.6-2.9,21.8-13.5,25-10.6,3.2-21.8-2.9-25-13.5-.3-1.1-.5-2.1-.7-3.2,3.2,10.6,14.3,16.7,25,13.5,9.4-2.8,15.4-12,14.2-21.7h0Z"/>
    <path class="st0" d="M445.4,318.8c-1.5,13,7.9,24.8,20.9,26.2,13,1.5,24.8-7.9,26.2-20.9,1.5-13-7.9-24.8-20.9-26.2-4.1-.5-8.3.2-12.1,1.8-4-3.2-8.9-2.2-12.9,1.2-4.5,3.8-5.9,6.4-9.4,12.7,3.4.5,4.6,4.7,8.1,5.2h0Z"/>
    <path class="st7" d="M528.8,387c-.3,6.7-.8,20-.8,20.6s-10,21.5-14.4,30.4h0c-.3.6-.6,1.2-.8,1.7-.7,1.4-2.1,2.3-3.7,2.3l-18.9-.3c-2.2,0-3.9-1.8-4-3.9l-2.1-83.3c0-1.1.9-2.1,2-2.1h24.4c2.1,0,4,1.2,4.9,3.1l11.7,24.2c1.1,2.3,1.6,4.8,1.5,7.3h.2Z"/>
    <path class="st7" d="M485.9,432c-4.9-2.9-9.2-6.6-12.9-10.9-8.6-9.7-13.9-21.9-15-34.9-1-11.1,1.2-19.3,6.5-24.5,6.7-6.6,15.9-5.6,16.3-5.6h.4l6.2,5.3-1.8,2.1-5.6-4.7c-1.7,0-8.6-.1-13.7,4.9-4.7,4.6-6.6,12.1-5.7,22.3,1,12.3,6,24,14.2,33.2,3.5,4.1,7.7,7.6,12.3,10.4l-1.3,2.4h.1Z"/>
    <rect class="st1" x="487.8" y="403.8" width="33.8" height=".9" transform="translate(-71 109.7) rotate(-11.6)"/>
    <rect class="st1" x="499.3" y="352.6" width=".9" height="52.7" transform="translate(-14.8 20.4) rotate(-2.3)"/>
    <path class="st1" d="M528.8,387c-.3,6.7-.8,20-.8,20.6s-10,21.5-14.4,30.4l8.1-46.9c.6-3.7,3.2-6.7,6.7-8,.3,1.3.4,2.5.3,3.8h.1Z"/>
    <path class="st9" d="M479.2,485.3c2.7-3.5,2.1-8.5-1.4-11.2-.4-.3-.8-.5-1.2-.8l1.6-18.2-10.8-3.7-2,25.7c-1.8,4.1,0,8.8,4.1,10.6,3.4,1.5,7.4.5,9.6-2.5h0Z"/>
    <path class="st3" d="M480.6,467.7l-19.1-.7.8-92.2c0-5.4,3.4-10.1,8.4-11.8,2.3-.8,4.8-.8,7.1,0,5.4,1.8,8.9,7.1,8.4,12.7l-5.7,92h.1Z"/>
    <path class="st3" d="M643.9,645.5h-376.6c-.6,0-1-.4-1-1s.4-1,1-1h376.6c.6,0,1,.4,1,1s-.4,1-1,1Z"/>
  </g>
  <path class="st4" d="M283.2,267s1.4,19.7,40.1,19.7,50.3-19.7,50.3-19.7h-90.4Z"/>
  <path class="st7" d="M338.1,215.2c-5.6-4.2-12.6-6.2-19.6-5.4,14.6,3.5,23.7,18.3,20.1,32.9-2.7,11.1-12,19.4-23.4,20.7,14.6,3.5,29.4-5.5,32.9-20.1,2.5-10.5-1.4-21.6-10-28.1h0Z"/>
</svg>