<?xml version="1.0" encoding="UTF-8"?>
<svg id="Layer_1" xmlns="http://www.w3.org/2000/svg" version="1.1" viewBox="0 0 705 705">
  <!-- Generator: Adobe Illustrator 29.0.1, SVG Export Plug-In . SVG Version: 2.1.0 Build 192)  -->
  <defs>
    <style>
      .st0 {
        fill: #cacaca;
      }

      .st1 {
        fill: #aa4e02;
      }

      .st2 {
        fill: #2f2e41;
      }

      .st3 {
        fill: #d6d6e3;
      }

      .st4 {
        fill: #fff;
      }

      .st5 {
        fill: #ffb6b6;
      }

      .st6 {
        fill: #090814;
      }

      .st7 {
        fill: #ffb9b9;
      }

      .st8 {
        fill: #e4e4e4;
      }

      .st9 {
        fill: #f67a0a;
      }

      .st10 {
        fill: #e6e6e6;
      }
    </style>
  </defs>
  <g id="Group_92">
    <path id="Path_1487-397" class="st8" d="M593.4,703.3H88.8c-3.9,0-7-3.1-7-7v-318.8c0-3.9,3.1-7,7-7h504.6c3.9,0,7,3.1,7,7v318.8c0,3.9-3.1,7-7,7Z"/>
    <path id="Path_1488-398" class="st4" d="M135.2,409.1c-1.7,0-3,1.3-3,3v249.6c0,1.7,1.3,3,3,3h411.8c1.7,0,3-1.3,3-3v-249.6c0-1.7-1.3-3-3-3H135.2Z"/>
    <path id="Path_1489-399" class="st10" d="M551,473.4v-15.8h-58.2v-49.5h-15.8v49.5h-103.7v-49.5h-15.8v49.5h-159.9v-49.5h-15.8v49.5h-55.3v15.8h55.3v61.5h-55.3v15.8h55.3v65.9h-55.3v15.8h140.5v33.3h15.8v-33.3h74.7v33.3h15.8v-33.3h177.7v-15.8h-177.7v-65.9h177.7v-15.8h-58.2v-61.5h58.2ZM357.4,473.4v19.3h-159.9v-19.3h159.9ZM197.5,508.5h159.9v26.4h-159.9v-26.4h0ZM197.5,616.6v-65.9h69.4v65.9h-69.4ZM357.4,616.6h-74.7v-65.9h74.7v65.9h0ZM476.9,534.9h-103.7v-61.5h103.7v61.5h0Z"/>
    <circle id="Ellipse_284" class="st9" cx="365.3" cy="544.8" r="20.2"/>
    <path id="Path_1490-400" class="st0" d="M705,705H-.1v-2.2h705.1v2.2Z"/>
    <circle id="Ellipse_285" class="st9" cx="367.8" cy="300.1" r="124.7"/>
    <path id="Path_1491-401" class="st9" d="M366.2,502.7l-39.4-67.3-39.4-67.3,78-.5,78-.5-38.6,67.7-38.6,67.7v.2Z"/>
    <circle id="Ellipse_286" class="st4" cx="368.8" cy="299.3" r="44.7"/>
    <path id="Path_1492-402" class="st6" d="M364.9.6s-26.7-7.5-34.6,28.9c-7.9,36.4-2.9,31.9-2.9,31.9l59.5-6.9s17.9-42.7-22.1-53.8h.1Z"/>
    <path id="Path_1493-403" class="st5" d="M326.1,160.5s-40.2,1.9-33.3,17.7c.5,1.1,1,2.2,1.4,3.1,5,11.4,10.7,22.5,17.2,33.2l24.7,41,9-5-25.3-65.8,22.8-1.9-16.4-22.3h-.1Z"/>
    <path id="Path_1517-404" class="st7" d="M373.8,45.4s3.7,19.5,7,22.3-24.6,7-24.6,7c0,0,4.2-13.5-.9-20.4s18.6-8.8,18.6-8.8h-.1Z"/>
    <path id="Path_1494-405" class="st5" d="M432.2,177.2l13,28.3s9.8,9.8,20.4,48.8c10.6,39,13,37.6,13,37.6l-10.6,3.5-43.3-78.8-21.4-26.9,6.5-14.4,22.3,1.9h.1Z"/>
    <path id="Path_1495-406" class="st6" d="M416.4,144.7l18.7,34.8s34.3,68.4,29.9,68.1c-4.9-.3-16.4,5.5-20.6,11.1-2,2.7-26.3-48.2-36.8-62.9l-22.8-17.7s-64.6,10.9-64.7,7.3c0-1.7,15.3,29.9,10.9,28-5-2.1-14.5,9.5-19.7,7.3-2.1-.9-13.5-29-19.6-44-1.6-3.9,0-8.4,3.8-10.3,4.6-2.4,68.7-17,68.7-17l-1.1-5.7,4.6-9.3,48.8,10.2h-.1Z"/>
    <circle id="Ellipse_287" class="st5" cx="360.2" cy="39.3" r="18.1"/>
    <path id="Path_1496-407" class="st3" d="M418.1,147.5c1,3-5.5,4.7-14.5,3-7.8-1.5-16.4-3.2-23.1-4.6-7.2-1.5-12.4-2.6-12.4-2.6,0,0-1.9,11.6-7.9,10.2-5.2-1.2-20.8-55.5-25-70.5-.6-2.3.3-4.6,2.3-5.9l21.4-13s14.7-5.1,20.1-5.2,14.7-1.5,14.7-1.5c0,0,10.7.9,12.5,8.8,1.8,7.9,9.6,54.7,9.8,66,.2,12.3-.8,6.3,2.2,15.3h-.1Z"/>
    <path id="Path_1497-408" class="st2" d="M367,16s-7.5,19.9-25.9,28.2l-3-17.7,28.9-10.5Z"/>
    <ellipse id="Ellipse_288" class="st5" cx="377.8" cy="32.3" rx="2.6" ry="4.9"/>
    <path id="Path_1501-409" class="st5" d="M373.8,190.9c3.4-3.8,3-9.5-.7-12.9-.4-.4-.8-.7-1.3-1l-16.2-81.6-18.6,7.1,21.7,78c-2.4,4.5-.7,10,3.8,12.4,3.8,2,8.4,1.2,11.2-2h.1Z"/>
    <path id="Path_1502-410" class="st3" d="M359.7,109.2l-20.4,3.6c-2.2.4-4.4-1.1-4.7-3.3v-.6l-.6-20.6c-1.1-6.2,3.1-12.1,9.3-13.2,6.2-1.1,12.1,3.1,13.2,9.3l6.5,19.5c.7,2.1-.5,4.5-2.6,5.2-.2,0-.4,0-.6,0h0Z"/>
    <path id="Path_1503-411" class="st5" d="M389.4,189.5c4.4-2.5,5.9-8.1,3.5-12.4-.3-.5-.6-.9-.9-1.3l10.9-82.5-19.9.8-4.4,80.8c-3.7,3.5-3.9,9.3-.4,13,2.9,3.1,7.6,3.8,11.3,1.7h-.1Z"/>
    <path id="Path_1504-412" class="st3" d="M402.3,107.6l-20.5-3.1c-2.2-.3-3.8-2.4-3.4-4.7,0-.2,0-.4.1-.6l6.1-19.7c1-6.2,6.8-10.5,13-9.5s10.5,6.8,9.5,13h0v20.6c-.1,2.3-2,4.1-4.2,4.1h-.6Z"/>
    <path id="Path_1515-413" class="st6" d="M338.8,254.1s-8-4.7-8.8,3.7l-1.7,16.8s-11.8,13.1-1.7,13.2,24.4-18.9,24.4-18.9c0,0,10.3-14.8,6.6-16.3s-14.7-8.8-14.4-5.8-4.4,7.3-4.4,7.3h0Z"/>
    <path id="Path_1516-414" class="st6" d="M478.7,290s-10.6-2.7-13.1,1.5-1.8,18.2-1.8,18.5,3.6,3.3,4.9,3.3,8.8,13.7,19.1,8.8-9.1-32.2-9.1-32.2h0Z"/>
    <g>
      <ellipse id="Ellipse_282" class="st1" cx="489.8" cy="569.7" rx="40.4" ry="82.5"/>
      <path id="Path_1485-395" class="st0" d="M486.1,704.8c16.2-97.2.2-194,0-195l-3.2.5c.2,1,16.1,97.3,0,193.9l3.2.5h0Z"/>
      <rect id="Rectangle_359" class="st0" x="470" y="541.9" width="3.2" height="41.5" transform="translate(-246.8 713.7) rotate(-61.9)"/>
      <rect id="Rectangle_360" class="st0" x="489.7" y="570.7" width="41.5" height="3.2" transform="translate(-209.9 309.2) rotate(-28.2)"/>
    </g>
    <g>
      <ellipse id="Ellipse_283" class="st9" cx="579.9" cy="439.1" rx="79.1" ry="161.4"/>
      <path id="Path_1486-396" class="st0" d="M571.1,703c31.6-189.9.3-379,0-380.9l-3.2.5c.3,1.9,31.6,190.5,0,379.8l3.2.5h0Z"/>
      <rect id="Rectangle_361" class="st0" x="542.8" y="385.2" width="3.2" height="81.1" transform="translate(-87.6 705.5) rotate(-61.9)"/>
      <rect id="Rectangle_362" class="st0" x="579.6" y="443.2" width="81.1" height="3.2" transform="translate(-136.6 345.8) rotate(-28.2)"/>
    </g>
  </g>
</svg>